<svg xmlns="http://www.w3.org/2000/svg" xmlns:xlink="http://www.w3.org/1999/xlink" contentStyleType="text/css" height="415px" preserveAspectRatio="none" style="width:655px;height:415px;background:#FFFFFF;" version="1.1" viewBox="0 0 655 415" width="655px" zoomAndPan="magnify"><defs/><g><line style="stroke:#181818;stroke-width:0.5;stroke-dasharray:5.0,5.0;" x1="23" x2="23" y1="81.2969" y2="334.3594"/><line style="stroke:#181818;stroke-width:0.5;stroke-dasharray:5.0,5.0;" x1="303.3906" x2="303.3906" y1="81.2969" y2="334.3594"/><line style="stroke:#181818;stroke-width:0.5;stroke-dasharray:5.0,5.0;" x1="593.8735" x2="593.8735" y1="81.2969" y2="334.3594"/><text fill="#000000" font-family="sans-serif" font-size="14" lengthAdjust="spacing" textLength="31.9102" x="5" y="77.9951">User</text><ellipse cx="23.9551" cy="13.5" fill="#E2E2F0" rx="8" ry="8" style="stroke:#181818;stroke-width:0.5;"/><path d="M23.9551,21.5 L23.9551,48.5 M10.9551,29.5 L36.9551,29.5 M23.9551,48.5 L10.9551,63.5 M23.9551,48.5 L36.9551,63.5 " fill="none" style="stroke:#181818;stroke-width:0.5;"/><text fill="#000000" font-family="sans-serif" font-size="14" lengthAdjust="spacing" textLength="31.9102" x="5" y="346.3545">User</text><ellipse cx="23.9551" cy="358.1563" fill="#E2E2F0" rx="8" ry="8" style="stroke:#181818;stroke-width:0.5;"/><path d="M23.9551,366.1563 L23.9551,393.1563 M10.9551,374.1563 L36.9551,374.1563 M23.9551,393.1563 L10.9551,408.1563 M23.9551,393.1563 L36.9551,408.1563 " fill="none" style="stroke:#181818;stroke-width:0.5;"/><rect fill="#E2E2F0" height="30.2969" rx="2.5" ry="2.5" style="stroke:#181818;stroke-width:0.5;" width="253.6133" x="177.3906" y="50"/><text fill="#000000" font-family="sans-serif" font-size="14" lengthAdjust="spacing" textLength="239.6133" x="184.3906" y="69.9951">API de Gerenciamento de Projetos</text><rect fill="#E2E2F0" height="30.2969" rx="2.5" ry="2.5" style="stroke:#181818;stroke-width:0.5;" width="253.6133" x="177.3906" y="333.3594"/><text fill="#000000" font-family="sans-serif" font-size="14" lengthAdjust="spacing" textLength="239.6133" x="184.3906" y="353.3545">API de Gerenciamento de Projetos</text><text fill="#000000" font-family="sans-serif" font-size="14" lengthAdjust="spacing" textLength="113.8252" x="534.8735" y="77.9951">Banco de Dados</text><path d="M576.7861,29 C576.7861,19 594.7861,19 594.7861,19 C594.7861,19 612.7861,19 612.7861,29 L612.7861,55 C612.7861,65 594.7861,65 594.7861,65 C594.7861,65 576.7861,65 576.7861,55 L576.7861,29 " fill="#E2E2F0" style="stroke:#181818;stroke-width:1.5;"/><path d="M576.7861,29 C576.7861,39 594.7861,39 594.7861,39 C594.7861,39 612.7861,39 612.7861,29 " fill="none" style="stroke:#181818;stroke-width:1.5;"/><text fill="#000000" font-family="sans-serif" font-size="14" lengthAdjust="spacing" textLength="113.8252" x="534.8735" y="346.3545">Banco de Dados</text><path d="M576.7861,359.6563 C576.7861,349.6563 594.7861,349.6563 594.7861,349.6563 C594.7861,349.6563 612.7861,349.6563 612.7861,359.6563 L612.7861,385.6563 C612.7861,395.6563 594.7861,395.6563 594.7861,395.6563 C594.7861,395.6563 576.7861,395.6563 576.7861,385.6563 L576.7861,359.6563 " fill="#E2E2F0" style="stroke:#181818;stroke-width:1.5;"/><path d="M576.7861,359.6563 C576.7861,369.6563 594.7861,369.6563 594.7861,369.6563 C594.7861,369.6563 612.7861,369.6563 612.7861,359.6563 " fill="none" style="stroke:#181818;stroke-width:1.5;"/><polygon fill="#181818" points="292.1973,108.4297,302.1973,112.4297,292.1973,116.4297,296.1973,112.4297" style="stroke:#181818;stroke-width:1.0;"/><line style="stroke:#181818;stroke-width:1.0;" x1="23.9551" x2="298.1973" y1="112.4297" y2="112.4297"/><text fill="#000000" font-family="sans-serif" font-size="13" lengthAdjust="spacing" textLength="140.3149" x="30.9551" y="107.3638">POST /api/v1/projetos</text><polygon fill="#181818" points="582.7861,137.5625,592.7861,141.5625,582.7861,145.5625,586.7861,141.5625" style="stroke:#181818;stroke-width:1.0;"/><line style="stroke:#181818;stroke-width:1.0;" x1="304.1973" x2="588.7861" y1="141.5625" y2="141.5625"/><text fill="#000000" font-family="sans-serif" font-size="13" lengthAdjust="spacing" textLength="224.5864" x="311.1973" y="136.4966">Cria projeto e associa funcion&#225;rios</text><polygon fill="#181818" points="315.1973,166.6953,305.1973,170.6953,315.1973,174.6953,311.1973,170.6953" style="stroke:#181818;stroke-width:1.0;"/><line style="stroke:#181818;stroke-width:1.0;" x1="309.1973" x2="593.7861" y1="170.6953" y2="170.6953"/><text fill="#000000" font-family="sans-serif" font-size="13" lengthAdjust="spacing" textLength="154.1528" x="321.1973" y="165.6294">Confirma&#231;&#227;o de cria&#231;&#227;o</text><polygon fill="#181818" points="34.9551,195.8281,24.9551,199.8281,34.9551,203.8281,30.9551,199.8281" style="stroke:#181818;stroke-width:1.0;"/><line style="stroke:#181818;stroke-width:1.0;" x1="28.9551" x2="303.1973" y1="199.8281" y2="199.8281"/><text fill="#000000" font-family="sans-serif" font-size="13" lengthAdjust="spacing" textLength="180.521" x="40.9551" y="194.7622">Retorna status 201 Created</text><polygon fill="#181818" points="292.1973,224.9609,302.1973,228.9609,292.1973,232.9609,296.1973,228.9609" style="stroke:#181818;stroke-width:1.0;"/><line style="stroke:#181818;stroke-width:1.0;" x1="23.9551" x2="298.1973" y1="228.9609" y2="228.9609"/><text fill="#000000" font-family="sans-serif" font-size="13" lengthAdjust="spacing" textLength="132.2788" x="30.9551" y="223.895">GET /api/v1/projetos</text><polygon fill="#181818" points="582.7861,254.0938,592.7861,258.0938,582.7861,262.0938,586.7861,258.0938" style="stroke:#181818;stroke-width:1.0;"/><line style="stroke:#181818;stroke-width:1.0;" x1="304.1973" x2="588.7861" y1="258.0938" y2="258.0938"/><text fill="#000000" font-family="sans-serif" font-size="13" lengthAdjust="spacing" textLength="266.5889" x="311.1973" y="253.0278">Recupera lista de projetos e funcion&#225;rios</text><polygon fill="#181818" points="315.1973,283.2266,305.1973,287.2266,315.1973,291.2266,311.1973,287.2266" style="stroke:#181818;stroke-width:1.0;"/><line style="stroke:#181818;stroke-width:1.0;" x1="309.1973" x2="593.7861" y1="287.2266" y2="287.2266"/><text fill="#000000" font-family="sans-serif" font-size="13" lengthAdjust="spacing" textLength="125.1821" x="321.1973" y="282.1606">Dados dos projetos</text><polygon fill="#181818" points="34.9551,312.3594,24.9551,316.3594,34.9551,320.3594,30.9551,316.3594" style="stroke:#181818;stroke-width:1.0;"/><line style="stroke:#181818;stroke-width:1.0;" x1="28.9551" x2="303.1973" y1="316.3594" y2="316.3594"/><text fill="#000000" font-family="sans-serif" font-size="13" lengthAdjust="spacing" textLength="256.2422" x="40.9551" y="311.2935">Retorna lista de projetos e funcion&#225;rios</text><!--SRC=[XP1DJiCm44RtFiMdxAjGbXL28WHLh8WA761mff8hQbjZX_iW5Xma5sFi1XQ8dqKMjf_U-nIoEGWU4uk99DbP5ybdD5V3BKR6beMzTNHadqEv62GSE8VKW18KCYDbUgB4Q3hojZ8zZGlGTyOKDrQN1TvWkBj_G4lHjI_hDYukKs9AzDq6r-88omDO7Ibe7lj9LmG_lufR-8lLYGz-x-H8y_lyLkDM1VLm2YjMmplrYIUaJ7bAE3zRQuefy_XjuVRcxu4xjbDa8JmxTPNY9wLpVvrPVmdAz-NySTw_qWy0]--></g></svg>